<mxfile host="Electron" modified="2024-01-10T23:00:54.638Z" agent="Mozilla/5.0 (Macintosh; Intel Mac OS X 10_15_7) AppleWebKit/537.36 (KHTML, like Gecko) draw.io/21.6.8 Chrome/114.0.5735.289 Electron/25.5.0 Safari/537.36" etag="4ym_Ohyg8DMHibnsfCNQ" version="21.6.8" type="device">
  <diagram id="R2lEEEUBdFMjLlhIrx00" name="Page-1">
    <mxGraphModel dx="1363" dy="2063" grid="0" gridSize="10" guides="1" tooltips="1" connect="1" arrows="1" fold="1" page="1" pageScale="1" pageWidth="850" pageHeight="1100" math="0" shadow="0" extFonts="Permanent Marker^https://fonts.googleapis.com/css?family=Permanent+Marker">
      <root>
        <mxCell id="0" />
        <mxCell id="1" parent="0" />
        <mxCell id="n-qz_1Uwv-SLQy8fwbKy-13" value="&lt;b&gt;Ingredient&lt;/b&gt;" style="rounded=0;whiteSpace=wrap;html=1;fillColor=#ffe6cc;strokeColor=#d79b00;" parent="1" vertex="1">
          <mxGeometry x="1371" y="284" width="120" height="60" as="geometry" />
        </mxCell>
        <mxCell id="n-qz_1Uwv-SLQy8fwbKy-14" value="id" style="ellipse;whiteSpace=wrap;html=1;fillColor=#ffe6cc;strokeColor=#d79b00;" parent="1" vertex="1">
          <mxGeometry x="748" y="341" width="50" height="20" as="geometry" />
        </mxCell>
        <mxCell id="n-qz_1Uwv-SLQy8fwbKy-18" value="time" style="ellipse;whiteSpace=wrap;html=1;fillColor=#ffe6cc;strokeColor=#d79b00;" parent="1" vertex="1">
          <mxGeometry x="688" y="341" width="50" height="20" as="geometry" />
        </mxCell>
        <mxCell id="MQQ5RnTl3gj_54zcDAu4-7" value="&lt;div style=&quot;color: rgb(59, 59, 59); background-color: rgb(255, 255, 255); font-family: Menlo, Monaco, &amp;quot;Courier New&amp;quot;, monospace; line-height: 18px;&quot;&gt;&lt;div style=&quot;line-height: 18px;&quot;&gt;&lt;b&gt;expense&lt;/b&gt;&lt;/div&gt;&lt;/div&gt;" style="rounded=0;whiteSpace=wrap;html=1;fillColor=#ffe6cc;strokeColor=#d79b00;" vertex="1" parent="1">
          <mxGeometry x="638" y="187" width="120" height="60" as="geometry" />
        </mxCell>
        <mxCell id="MQQ5RnTl3gj_54zcDAu4-8" value="&lt;div style=&quot;color: rgb(59, 59, 59); background-color: rgb(255, 255, 255); font-family: Menlo, Monaco, &amp;quot;Courier New&amp;quot;, monospace; line-height: 18px;&quot;&gt;&lt;div style=&quot;line-height: 18px;&quot;&gt;&lt;div style=&quot;line-height: 18px;&quot;&gt;&lt;b&gt;expense_list&lt;/b&gt;&lt;/div&gt;&lt;/div&gt;&lt;/div&gt;" style="rounded=0;whiteSpace=wrap;html=1;fillColor=#ffe6cc;strokeColor=#d79b00;" vertex="1" parent="1">
          <mxGeometry x="878" y="1" width="120" height="60" as="geometry" />
        </mxCell>
        <mxCell id="MQQ5RnTl3gj_54zcDAu4-9" value="&lt;div style=&quot;color: rgb(59, 59, 59); background-color: rgb(255, 255, 255); font-family: Menlo, Monaco, &amp;quot;Courier New&amp;quot;, monospace; line-height: 18px;&quot;&gt;expense_id&lt;/div&gt;" style="ellipse;whiteSpace=wrap;html=1;fillColor=#ffe6cc;strokeColor=#d79b00;" vertex="1" parent="1">
          <mxGeometry x="720" y="-21" width="120" height="20" as="geometry" />
        </mxCell>
        <mxCell id="MQQ5RnTl3gj_54zcDAu4-10" value="&lt;div style=&quot;color: rgb(59, 59, 59); background-color: rgb(255, 255, 255); font-family: Menlo, Monaco, &amp;quot;Courier New&amp;quot;, monospace; line-height: 18px;&quot;&gt;&lt;div style=&quot;line-height: 18px;&quot;&gt;ingredient_id&lt;/div&gt;&lt;/div&gt;" style="ellipse;whiteSpace=wrap;html=1;fillColor=#ffe6cc;strokeColor=#d79b00;" vertex="1" parent="1">
          <mxGeometry x="734" y="-109" width="150" height="30" as="geometry" />
        </mxCell>
        <mxCell id="MQQ5RnTl3gj_54zcDAu4-11" value="&lt;div style=&quot;color: rgb(59, 59, 59); background-color: rgb(255, 255, 255); font-family: Menlo, Monaco, &amp;quot;Courier New&amp;quot;, monospace; line-height: 18px;&quot;&gt;&lt;div style=&quot;line-height: 18px;&quot;&gt;&lt;div style=&quot;line-height: 18px;&quot;&gt;&lt;div style=&quot;line-height: 18px;&quot;&gt;total_price&lt;/div&gt;&lt;/div&gt;&lt;/div&gt;&lt;/div&gt;" style="ellipse;whiteSpace=wrap;html=1;fillColor=#ffe6cc;strokeColor=#d79b00;" vertex="1" parent="1">
          <mxGeometry x="994" y="-200" width="150" height="30" as="geometry" />
        </mxCell>
        <mxCell id="MQQ5RnTl3gj_54zcDAu4-13" value="&lt;div style=&quot;color: rgb(59, 59, 59); background-color: rgb(255, 255, 255); font-family: Menlo, Monaco, &amp;quot;Courier New&amp;quot;, monospace; line-height: 18px;&quot;&gt;&lt;div style=&quot;line-height: 18px;&quot;&gt;quantity&lt;/div&gt;&lt;/div&gt;" style="ellipse;whiteSpace=wrap;html=1;fillColor=#ffe6cc;strokeColor=#d79b00;" vertex="1" parent="1">
          <mxGeometry x="908" y="-159" width="120" height="20" as="geometry" />
        </mxCell>
        <mxCell id="MQQ5RnTl3gj_54zcDAu4-14" value="&lt;div style=&quot;color: rgb(59, 59, 59); background-color: rgb(255, 255, 255); font-family: Menlo, Monaco, &amp;quot;Courier New&amp;quot;, monospace; line-height: 18px;&quot;&gt;&lt;div style=&quot;line-height: 18px;&quot;&gt;&lt;div style=&quot;line-height: 18px;&quot;&gt;&lt;b&gt;supply&lt;/b&gt;&lt;/div&gt;&lt;/div&gt;&lt;/div&gt;" style="rounded=0;whiteSpace=wrap;html=1;fillColor=#ffe6cc;strokeColor=#d79b00;" vertex="1" parent="1">
          <mxGeometry x="1028" y="291" width="120" height="60" as="geometry" />
        </mxCell>
        <mxCell id="MQQ5RnTl3gj_54zcDAu4-15" value="id" style="ellipse;whiteSpace=wrap;html=1;fillColor=#ffe6cc;strokeColor=#d79b00;" vertex="1" parent="1">
          <mxGeometry x="1063" y="251" width="50" height="20" as="geometry" />
        </mxCell>
        <mxCell id="MQQ5RnTl3gj_54zcDAu4-16" value="name" style="ellipse;whiteSpace=wrap;html=1;fillColor=#ffe6cc;strokeColor=#d79b00;" vertex="1" parent="1">
          <mxGeometry x="908" y="241" width="50" height="20" as="geometry" />
        </mxCell>
        <mxCell id="MQQ5RnTl3gj_54zcDAu4-17" value="address" style="ellipse;whiteSpace=wrap;html=1;fillColor=#ffe6cc;strokeColor=#d79b00;" vertex="1" parent="1">
          <mxGeometry x="928" y="311" width="50" height="20" as="geometry" />
        </mxCell>
        <mxCell id="MQQ5RnTl3gj_54zcDAu4-18" value="wait_time" style="ellipse;whiteSpace=wrap;html=1;fillColor=#ffe6cc;strokeColor=#d79b00;" vertex="1" parent="1">
          <mxGeometry x="998" y="231" width="80" height="20" as="geometry" />
        </mxCell>
        <mxCell id="MQQ5RnTl3gj_54zcDAu4-19" value="&lt;div style=&quot;color: rgb(59, 59, 59); background-color: rgb(255, 255, 255); font-family: Menlo, Monaco, &amp;quot;Courier New&amp;quot;, monospace; line-height: 18px;&quot;&gt;&lt;div style=&quot;line-height: 18px;&quot;&gt;&lt;div style=&quot;line-height: 18px;&quot;&gt;&lt;b&gt;supply_ingredient&lt;/b&gt;&lt;/div&gt;&lt;/div&gt;&lt;/div&gt;" style="rounded=0;whiteSpace=wrap;html=1;fillColor=#ffe6cc;strokeColor=#d79b00;" vertex="1" parent="1">
          <mxGeometry x="365" y="301" width="140" height="60" as="geometry" />
        </mxCell>
        <mxCell id="MQQ5RnTl3gj_54zcDAu4-20" value="&lt;div style=&quot;color: rgb(59, 59, 59); background-color: rgb(255, 255, 255); font-family: Menlo, Monaco, &amp;quot;Courier New&amp;quot;, monospace; line-height: 18px;&quot;&gt;&lt;div style=&quot;line-height: 18px;&quot;&gt;&lt;div style=&quot;line-height: 18px;&quot;&gt;&lt;div style=&quot;line-height: 18px;&quot;&gt;supply_id&lt;/div&gt;&lt;/div&gt;&lt;/div&gt;&lt;/div&gt;" style="ellipse;whiteSpace=wrap;html=1;fillColor=#ffe6cc;strokeColor=#d79b00;" vertex="1" parent="1">
          <mxGeometry x="405" y="499" width="150" height="30" as="geometry" />
        </mxCell>
        <mxCell id="MQQ5RnTl3gj_54zcDAu4-22" value="&lt;div style=&quot;color: rgb(59, 59, 59); background-color: rgb(255, 255, 255); font-family: Menlo, Monaco, &amp;quot;Courier New&amp;quot;, monospace; line-height: 18px;&quot;&gt;&lt;div style=&quot;line-height: 18px;&quot;&gt;&lt;div style=&quot;line-height: 18px;&quot;&gt;&lt;div style=&quot;line-height: 18px;&quot;&gt;ingredient_id&lt;/div&gt;&lt;/div&gt;&lt;/div&gt;&lt;/div&gt;" style="ellipse;whiteSpace=wrap;html=1;fillColor=#ffe6cc;strokeColor=#d79b00;" vertex="1" parent="1">
          <mxGeometry x="233" y="475" width="150" height="30" as="geometry" />
        </mxCell>
        <mxCell id="MQQ5RnTl3gj_54zcDAu4-23" value="id" style="ellipse;whiteSpace=wrap;html=1;fillColor=#ffe6cc;strokeColor=#d79b00;" vertex="1" parent="1">
          <mxGeometry x="268" y="407" width="50" height="20" as="geometry" />
        </mxCell>
        <mxCell id="MQQ5RnTl3gj_54zcDAu4-32" value="price" style="ellipse;whiteSpace=wrap;html=1;fillColor=#ffe6cc;strokeColor=#d79b00;" vertex="1" parent="1">
          <mxGeometry x="516" y="468" width="50" height="20" as="geometry" />
        </mxCell>
        <mxCell id="n-qz_1Uwv-SLQy8fwbKy-8" value="&lt;b&gt;Employee&lt;/b&gt;" style="rounded=0;whiteSpace=wrap;html=1;fillColor=#ffe6cc;strokeColor=#d79b00;" parent="1" vertex="1">
          <mxGeometry x="358" y="-272" width="120" height="60" as="geometry" />
        </mxCell>
        <mxCell id="n-qz_1Uwv-SLQy8fwbKy-9" value="id" style="ellipse;whiteSpace=wrap;html=1;fillColor=#ffe6cc;strokeColor=#d79b00;" parent="1" vertex="1">
          <mxGeometry x="538" y="-139" width="50" height="20" as="geometry" />
        </mxCell>
        <mxCell id="n-qz_1Uwv-SLQy8fwbKy-10" value="name" style="ellipse;whiteSpace=wrap;html=1;fillColor=#ffe6cc;strokeColor=#d79b00;" parent="1" vertex="1">
          <mxGeometry x="528" y="-99" width="50" height="20" as="geometry" />
        </mxCell>
        <mxCell id="n-qz_1Uwv-SLQy8fwbKy-12" value="salary" style="ellipse;whiteSpace=wrap;html=1;fillColor=#ffe6cc;strokeColor=#d79b00;" parent="1" vertex="1">
          <mxGeometry x="538" y="-39" width="50" height="20" as="geometry" />
        </mxCell>
        <mxCell id="n-qz_1Uwv-SLQy8fwbKy-1" value="&lt;b&gt;Dish&lt;/b&gt;" style="rounded=0;whiteSpace=wrap;html=1;container=0;fillColor=#ffe6cc;strokeColor=#d79b00;" parent="1" vertex="1">
          <mxGeometry x="358" y="61" width="120" height="60" as="geometry" />
        </mxCell>
        <mxCell id="n-qz_1Uwv-SLQy8fwbKy-2" value="id" style="ellipse;whiteSpace=wrap;html=1;container=0;fillColor=#ffe6cc;strokeColor=#d79b00;" parent="1" vertex="1">
          <mxGeometry x="218" y="61" width="50" height="20" as="geometry" />
        </mxCell>
        <mxCell id="n-qz_1Uwv-SLQy8fwbKy-4" value="name" style="ellipse;whiteSpace=wrap;html=1;container=0;fillColor=#ffe6cc;strokeColor=#d79b00;" parent="1" vertex="1">
          <mxGeometry x="288" y="131" width="50" height="20" as="geometry" />
        </mxCell>
        <mxCell id="n-qz_1Uwv-SLQy8fwbKy-5" value="description" style="ellipse;whiteSpace=wrap;html=1;container=0;fillColor=#ffe6cc;strokeColor=#d79b00;" parent="1" vertex="1">
          <mxGeometry x="240" y="107" width="70" height="20" as="geometry" />
        </mxCell>
        <mxCell id="n-qz_1Uwv-SLQy8fwbKy-6" value="price" style="ellipse;whiteSpace=wrap;html=1;container=0;fillColor=#ffe6cc;strokeColor=#d79b00;" parent="1" vertex="1">
          <mxGeometry x="268" y="-19" width="50" height="20" as="geometry" />
        </mxCell>
        <mxCell id="n-qz_1Uwv-SLQy8fwbKy-7" value="time_to_do" style="ellipse;whiteSpace=wrap;html=1;container=0;fillColor=#ffe6cc;strokeColor=#d79b00;" parent="1" vertex="1">
          <mxGeometry x="203" y="31" width="80" height="20" as="geometry" />
        </mxCell>
        <mxCell id="MQQ5RnTl3gj_54zcDAu4-39" value="id" style="ellipse;whiteSpace=wrap;html=1;fillColor=#ffe6cc;strokeColor=#d79b00;" vertex="1" parent="1">
          <mxGeometry x="1347" y="224" width="50" height="20" as="geometry" />
        </mxCell>
        <mxCell id="MQQ5RnTl3gj_54zcDAu4-40" value="name" style="ellipse;whiteSpace=wrap;html=1;fillColor=#ffe6cc;strokeColor=#d79b00;" vertex="1" parent="1">
          <mxGeometry x="1424" y="218" width="50" height="20" as="geometry" />
        </mxCell>
        <mxCell id="MQQ5RnTl3gj_54zcDAu4-41" value="price" style="ellipse;whiteSpace=wrap;html=1;fillColor=#ffe6cc;strokeColor=#d79b00;" vertex="1" parent="1">
          <mxGeometry x="1488" y="244" width="50" height="20" as="geometry" />
        </mxCell>
        <mxCell id="n-qz_1Uwv-SLQy8fwbKy-15" value="&lt;div style=&quot;color: rgb(59, 59, 59); background-color: rgb(255, 255, 255); font-family: Menlo, Monaco, &amp;quot;Courier New&amp;quot;, monospace; line-height: 18px;&quot;&gt;ingredient_id&lt;/div&gt;" style="ellipse;whiteSpace=wrap;html=1;fillColor=#ffe6cc;strokeColor=#d79b00;" parent="1" vertex="1">
          <mxGeometry x="1191" y="-83" width="120" height="30" as="geometry" />
        </mxCell>
        <mxCell id="MQQ5RnTl3gj_54zcDAu4-1" value="&lt;b&gt;Inventory&lt;/b&gt;" style="rounded=0;whiteSpace=wrap;html=1;fillColor=#ffe6cc;strokeColor=#d79b00;" vertex="1" parent="1">
          <mxGeometry x="1251" y="17" width="120" height="60" as="geometry" />
        </mxCell>
        <mxCell id="MQQ5RnTl3gj_54zcDAu4-2" value="&lt;div style=&quot;color: rgb(59, 59, 59); background-color: rgb(255, 255, 255); font-family: Menlo, Monaco, &amp;quot;Courier New&amp;quot;, monospace; line-height: 18px;&quot;&gt;quantity&lt;/div&gt;" style="ellipse;whiteSpace=wrap;html=1;fillColor=#ffe6cc;strokeColor=#d79b00;" vertex="1" parent="1">
          <mxGeometry x="1411" y="-63" width="100" height="30" as="geometry" />
        </mxCell>
        <mxCell id="MQQ5RnTl3gj_54zcDAu4-46" value="&lt;div style=&quot;color: rgb(59, 59, 59); background-color: rgb(255, 255, 255); font-family: Menlo, Monaco, &amp;quot;Courier New&amp;quot;, monospace; font-size: 12px; line-height: 18px;&quot;&gt;&lt;div style=&quot;line-height: 18px;&quot;&gt;&lt;div style=&quot;line-height: 18px;&quot;&gt;&lt;b&gt;Order&lt;/b&gt;&lt;/div&gt;&lt;/div&gt;&lt;/div&gt;" style="rounded=0;whiteSpace=wrap;html=1;fillColor=#ffe6cc;strokeColor=#d79b00;" vertex="1" parent="1">
          <mxGeometry x="884" y="373" width="120" height="60" as="geometry" />
        </mxCell>
        <mxCell id="MQQ5RnTl3gj_54zcDAu4-47" value="id" style="ellipse;whiteSpace=wrap;html=1;fillColor=#ffe6cc;strokeColor=#d79b00;" vertex="1" parent="1">
          <mxGeometry x="817" y="459" width="50" height="20" as="geometry" />
        </mxCell>
        <mxCell id="MQQ5RnTl3gj_54zcDAu4-48" value="&lt;div style=&quot;color: rgb(59, 59, 59); background-color: rgb(255, 255, 255); font-family: Menlo, Monaco, &amp;quot;Courier New&amp;quot;, monospace; line-height: 18px;&quot;&gt;customer_id&lt;/div&gt;" style="ellipse;whiteSpace=wrap;html=1;fillColor=#ffe6cc;strokeColor=#d79b00;" vertex="1" parent="1">
          <mxGeometry x="879" y="475" width="119" height="30" as="geometry" />
        </mxCell>
        <mxCell id="MQQ5RnTl3gj_54zcDAu4-51" value="&lt;div style=&quot;color: rgb(59, 59, 59); background-color: rgb(255, 255, 255); font-family: Menlo, Monaco, &amp;quot;Courier New&amp;quot;, monospace; line-height: 18px;&quot;&gt;status&lt;/div&gt;" style="ellipse;whiteSpace=wrap;html=1;fillColor=#ffe6cc;strokeColor=#d79b00;" vertex="1" parent="1">
          <mxGeometry x="769" y="499" width="75" height="21" as="geometry" />
        </mxCell>
        <mxCell id="MQQ5RnTl3gj_54zcDAu4-52" value="&lt;div style=&quot;background-color: rgb(255, 255, 255); line-height: 18px;&quot;&gt;&lt;div style=&quot;line-height: 18px;&quot;&gt;&lt;div style=&quot;line-height: 18px;&quot;&gt;&lt;font face=&quot;Menlo, Monaco, Courier New, monospace&quot; color=&quot;#3b3b3b&quot;&gt;&lt;b&gt;Customer&lt;/b&gt;&lt;/font&gt;&lt;br&gt;&lt;/div&gt;&lt;/div&gt;&lt;/div&gt;" style="rounded=0;whiteSpace=wrap;html=1;fillColor=#ffe6cc;strokeColor=#d79b00;" vertex="1" parent="1">
          <mxGeometry x="280" y="651" width="120" height="60" as="geometry" />
        </mxCell>
        <mxCell id="MQQ5RnTl3gj_54zcDAu4-53" value="id" style="ellipse;whiteSpace=wrap;html=1;fillColor=#ffe6cc;strokeColor=#d79b00;" vertex="1" parent="1">
          <mxGeometry x="804" y="889" width="50" height="20" as="geometry" />
        </mxCell>
        <mxCell id="MQQ5RnTl3gj_54zcDAu4-54" value="name" style="ellipse;whiteSpace=wrap;html=1;fillColor=#ffe6cc;strokeColor=#d79b00;" vertex="1" parent="1">
          <mxGeometry x="268" y="788" width="50" height="20" as="geometry" />
        </mxCell>
        <mxCell id="MQQ5RnTl3gj_54zcDAu4-55" value="&lt;div style=&quot;color: rgb(59, 59, 59); background-color: rgb(255, 255, 255); font-family: Menlo, Monaco, &amp;quot;Courier New&amp;quot;, monospace; line-height: 18px;&quot;&gt;address&lt;/div&gt;" style="ellipse;whiteSpace=wrap;html=1;fillColor=#ffe6cc;strokeColor=#d79b00;" vertex="1" parent="1">
          <mxGeometry x="158" y="827" width="72" height="25" as="geometry" />
        </mxCell>
        <mxCell id="MQQ5RnTl3gj_54zcDAu4-56" value="&lt;div style=&quot;color: rgb(59, 59, 59); background-color: rgb(255, 255, 255); font-family: Menlo, Monaco, &amp;quot;Courier New&amp;quot;, monospace; line-height: 18px;&quot;&gt;&lt;div style=&quot;line-height: 18px;&quot;&gt;phone&lt;/div&gt;&lt;/div&gt;" style="ellipse;whiteSpace=wrap;html=1;fillColor=#ffe6cc;strokeColor=#d79b00;" vertex="1" parent="1">
          <mxGeometry x="365" y="847" width="72" height="25" as="geometry" />
        </mxCell>
        <mxCell id="MQQ5RnTl3gj_54zcDAu4-57" value="&lt;div style=&quot;color: rgb(59, 59, 59); background-color: rgb(255, 255, 255); font-family: Menlo, Monaco, &amp;quot;Courier New&amp;quot;, monospace; line-height: 18px;&quot;&gt;wait_time&lt;/div&gt;" style="ellipse;whiteSpace=wrap;html=1;fillColor=#ffe6cc;strokeColor=#d79b00;" vertex="1" parent="1">
          <mxGeometry x="509" y="715" width="95" height="28" as="geometry" />
        </mxCell>
        <mxCell id="MQQ5RnTl3gj_54zcDAu4-58" value="&lt;div style=&quot;background-color: rgb(255, 255, 255); line-height: 18px;&quot;&gt;&lt;div style=&quot;line-height: 18px;&quot;&gt;&lt;div style=&quot;line-height: 18px;&quot;&gt;&lt;font face=&quot;Menlo, Monaco, Courier New, monospace&quot; color=&quot;#3b3b3b&quot;&gt;&lt;b&gt;Work&lt;/b&gt;&lt;/font&gt;&lt;br&gt;&lt;/div&gt;&lt;/div&gt;&lt;/div&gt;" style="rounded=0;whiteSpace=wrap;html=1;fillColor=#ffe6cc;strokeColor=#d79b00;" vertex="1" parent="1">
          <mxGeometry x="838" y="655" width="120" height="60" as="geometry" />
        </mxCell>
        <mxCell id="MQQ5RnTl3gj_54zcDAu4-59" value="&lt;div style=&quot;color: rgb(59, 59, 59); background-color: rgb(255, 255, 255); font-family: Menlo, Monaco, &amp;quot;Courier New&amp;quot;, monospace; line-height: 18px;&quot;&gt;employee_id&lt;/div&gt;" style="ellipse;whiteSpace=wrap;html=1;fillColor=#ffe6cc;strokeColor=#d79b00;" vertex="1" parent="1">
          <mxGeometry x="954" y="872" width="127" height="30" as="geometry" />
        </mxCell>
        <mxCell id="MQQ5RnTl3gj_54zcDAu4-61" value="&lt;div style=&quot;color: rgb(59, 59, 59); background-color: rgb(255, 255, 255); font-family: Menlo, Monaco, &amp;quot;Courier New&amp;quot;, monospace; line-height: 18px;&quot;&gt;&lt;div style=&quot;line-height: 18px;&quot;&gt;dish_id&lt;/div&gt;&lt;/div&gt;" style="ellipse;whiteSpace=wrap;html=1;fillColor=#ffe6cc;strokeColor=#d79b00;" vertex="1" parent="1">
          <mxGeometry x="851" y="791" width="127" height="30" as="geometry" />
        </mxCell>
        <mxCell id="MQQ5RnTl3gj_54zcDAu4-62" value="&lt;div style=&quot;color: rgb(59, 59, 59); background-color: rgb(255, 255, 255); font-family: Menlo, Monaco, &amp;quot;Courier New&amp;quot;, monospace; line-height: 18px;&quot;&gt;&lt;div style=&quot;line-height: 18px;&quot;&gt;&lt;div style=&quot;line-height: 18px;&quot;&gt;time_start&lt;/div&gt;&lt;/div&gt;&lt;/div&gt;" style="ellipse;whiteSpace=wrap;html=1;fillColor=#ffe6cc;strokeColor=#d79b00;" vertex="1" parent="1">
          <mxGeometry x="1235" y="775" width="127" height="30" as="geometry" />
        </mxCell>
        <mxCell id="MQQ5RnTl3gj_54zcDAu4-63" value="&lt;div style=&quot;color: rgb(59, 59, 59); background-color: rgb(255, 255, 255); font-family: Menlo, Monaco, &amp;quot;Courier New&amp;quot;, monospace; line-height: 18px;&quot;&gt;&lt;div style=&quot;line-height: 18px;&quot;&gt;&lt;div style=&quot;line-height: 18px;&quot;&gt;&lt;div style=&quot;line-height: 18px;&quot;&gt;time_end&lt;/div&gt;&lt;/div&gt;&lt;/div&gt;&lt;/div&gt;" style="ellipse;whiteSpace=wrap;html=1;fillColor=#ffe6cc;strokeColor=#d79b00;" vertex="1" parent="1">
          <mxGeometry x="1168" y="715" width="127" height="30" as="geometry" />
        </mxCell>
        <mxCell id="MQQ5RnTl3gj_54zcDAu4-73" value="" style="endArrow=none;html=1;rounded=0;fillColor=#ffe6cc;strokeColor=#d79b00;" edge="1" parent="1" source="MQQ5RnTl3gj_54zcDAu4-61" target="MQQ5RnTl3gj_54zcDAu4-58">
          <mxGeometry width="50" height="50" relative="1" as="geometry">
            <mxPoint x="816" y="635" as="sourcePoint" />
            <mxPoint x="866" y="585" as="targetPoint" />
          </mxGeometry>
        </mxCell>
        <mxCell id="MQQ5RnTl3gj_54zcDAu4-75" value="" style="endArrow=none;html=1;rounded=0;entryX=1;entryY=0.5;entryDx=0;entryDy=0;fillColor=#ffe6cc;strokeColor=#d79b00;" edge="1" parent="1" source="MQQ5RnTl3gj_54zcDAu4-63" target="MQQ5RnTl3gj_54zcDAu4-58">
          <mxGeometry width="50" height="50" relative="1" as="geometry">
            <mxPoint x="922" y="801" as="sourcePoint" />
            <mxPoint x="912" y="725" as="targetPoint" />
          </mxGeometry>
        </mxCell>
        <mxCell id="MQQ5RnTl3gj_54zcDAu4-76" value="" style="endArrow=none;html=1;rounded=0;fillColor=#ffe6cc;strokeColor=#d79b00;" edge="1" parent="1" source="MQQ5RnTl3gj_54zcDAu4-62" target="MQQ5RnTl3gj_54zcDAu4-58">
          <mxGeometry width="50" height="50" relative="1" as="geometry">
            <mxPoint x="1189" y="731" as="sourcePoint" />
            <mxPoint x="968" y="695" as="targetPoint" />
          </mxGeometry>
        </mxCell>
        <mxCell id="MQQ5RnTl3gj_54zcDAu4-77" value="" style="endArrow=none;html=1;rounded=0;fillColor=#ffe6cc;strokeColor=#d79b00;" edge="1" parent="1" source="MQQ5RnTl3gj_54zcDAu4-59" target="MQQ5RnTl3gj_54zcDAu4-58">
          <mxGeometry width="50" height="50" relative="1" as="geometry">
            <mxPoint x="1199" y="741" as="sourcePoint" />
            <mxPoint x="978" y="705" as="targetPoint" />
          </mxGeometry>
        </mxCell>
        <mxCell id="MQQ5RnTl3gj_54zcDAu4-78" value="" style="endArrow=none;html=1;rounded=0;fillColor=#ffe6cc;strokeColor=#d79b00;" edge="1" parent="1" source="MQQ5RnTl3gj_54zcDAu4-53" target="MQQ5RnTl3gj_54zcDAu4-58">
          <mxGeometry width="50" height="50" relative="1" as="geometry">
            <mxPoint x="1209" y="751" as="sourcePoint" />
            <mxPoint x="988" y="715" as="targetPoint" />
          </mxGeometry>
        </mxCell>
        <mxCell id="MQQ5RnTl3gj_54zcDAu4-80" style="edgeStyle=orthogonalEdgeStyle;rounded=0;orthogonalLoop=1;jettySize=auto;html=1;exitX=0.5;exitY=1;exitDx=0;exitDy=0;fillColor=#ffe6cc;strokeColor=#d79b00;" edge="1" parent="1" source="MQQ5RnTl3gj_54zcDAu4-53" target="MQQ5RnTl3gj_54zcDAu4-53">
          <mxGeometry relative="1" as="geometry" />
        </mxCell>
        <mxCell id="MQQ5RnTl3gj_54zcDAu4-82" value="" style="endArrow=none;html=1;rounded=0;entryX=0.579;entryY=0.98;entryDx=0;entryDy=0;entryPerimeter=0;fillColor=#ffe6cc;strokeColor=#d79b00;" edge="1" parent="1" source="MQQ5RnTl3gj_54zcDAu4-57" target="MQQ5RnTl3gj_54zcDAu4-52">
          <mxGeometry width="50" height="50" relative="1" as="geometry">
            <mxPoint x="1219" y="761" as="sourcePoint" />
            <mxPoint x="998" y="725" as="targetPoint" />
          </mxGeometry>
        </mxCell>
        <mxCell id="MQQ5RnTl3gj_54zcDAu4-83" value="" style="endArrow=none;html=1;rounded=0;exitX=0;exitY=0;exitDx=0;exitDy=0;fillColor=#ffe6cc;strokeColor=#d79b00;" edge="1" parent="1" source="MQQ5RnTl3gj_54zcDAu4-54" target="MQQ5RnTl3gj_54zcDAu4-52">
          <mxGeometry width="50" height="50" relative="1" as="geometry">
            <mxPoint x="182" y="789" as="sourcePoint" />
            <mxPoint x="359" y="720" as="targetPoint" />
          </mxGeometry>
        </mxCell>
        <mxCell id="MQQ5RnTl3gj_54zcDAu4-84" value="" style="endArrow=none;html=1;rounded=0;entryX=0.5;entryY=1;entryDx=0;entryDy=0;fillColor=#ffe6cc;strokeColor=#d79b00;" edge="1" parent="1" source="MQQ5RnTl3gj_54zcDAu4-56" target="MQQ5RnTl3gj_54zcDAu4-52">
          <mxGeometry width="50" height="50" relative="1" as="geometry">
            <mxPoint x="192" y="799" as="sourcePoint" />
            <mxPoint x="369" y="730" as="targetPoint" />
          </mxGeometry>
        </mxCell>
        <mxCell id="MQQ5RnTl3gj_54zcDAu4-85" value="" style="endArrow=none;html=1;rounded=0;exitX=0.5;exitY=0;exitDx=0;exitDy=0;fillColor=#ffe6cc;strokeColor=#d79b00;" edge="1" parent="1" source="MQQ5RnTl3gj_54zcDAu4-55" target="MQQ5RnTl3gj_54zcDAu4-52">
          <mxGeometry width="50" height="50" relative="1" as="geometry">
            <mxPoint x="202" y="809" as="sourcePoint" />
            <mxPoint x="379" y="740" as="targetPoint" />
          </mxGeometry>
        </mxCell>
        <mxCell id="MQQ5RnTl3gj_54zcDAu4-86" value="" style="endArrow=none;html=1;rounded=0;exitX=0.736;exitY=0.033;exitDx=0;exitDy=0;exitPerimeter=0;fillColor=#ffe6cc;strokeColor=#d79b00;" edge="1" parent="1" source="MQQ5RnTl3gj_54zcDAu4-22" target="MQQ5RnTl3gj_54zcDAu4-19">
          <mxGeometry width="50" height="50" relative="1" as="geometry">
            <mxPoint x="212" y="819" as="sourcePoint" />
            <mxPoint x="389" y="750" as="targetPoint" />
          </mxGeometry>
        </mxCell>
        <mxCell id="MQQ5RnTl3gj_54zcDAu4-87" value="" style="endArrow=none;html=1;rounded=0;entryX=0.25;entryY=1;entryDx=0;entryDy=0;fillColor=#ffe6cc;strokeColor=#d79b00;" edge="1" parent="1" source="MQQ5RnTl3gj_54zcDAu4-23" target="MQQ5RnTl3gj_54zcDAu4-19">
          <mxGeometry width="50" height="50" relative="1" as="geometry">
            <mxPoint x="222" y="829" as="sourcePoint" />
            <mxPoint x="399" y="760" as="targetPoint" />
          </mxGeometry>
        </mxCell>
        <mxCell id="MQQ5RnTl3gj_54zcDAu4-88" value="" style="endArrow=none;html=1;rounded=0;entryX=0.5;entryY=1;entryDx=0;entryDy=0;fillColor=#ffe6cc;strokeColor=#d79b00;" edge="1" parent="1" source="MQQ5RnTl3gj_54zcDAu4-20" target="MQQ5RnTl3gj_54zcDAu4-19">
          <mxGeometry width="50" height="50" relative="1" as="geometry">
            <mxPoint x="281" y="310" as="sourcePoint" />
            <mxPoint x="368" y="367" as="targetPoint" />
          </mxGeometry>
        </mxCell>
        <mxCell id="MQQ5RnTl3gj_54zcDAu4-89" value="" style="endArrow=none;html=1;rounded=0;fillColor=#ffe6cc;strokeColor=#d79b00;" edge="1" parent="1" source="MQQ5RnTl3gj_54zcDAu4-32" target="MQQ5RnTl3gj_54zcDAu4-19">
          <mxGeometry width="50" height="50" relative="1" as="geometry">
            <mxPoint x="291" y="320" as="sourcePoint" />
            <mxPoint x="378" y="377" as="targetPoint" />
          </mxGeometry>
        </mxCell>
        <mxCell id="MQQ5RnTl3gj_54zcDAu4-90" value="" style="endArrow=none;html=1;rounded=0;exitX=1;exitY=1;exitDx=0;exitDy=0;fillColor=#ffe6cc;strokeColor=#d79b00;" edge="1" parent="1" source="n-qz_1Uwv-SLQy8fwbKy-6" target="n-qz_1Uwv-SLQy8fwbKy-1">
          <mxGeometry width="50" height="50" relative="1" as="geometry">
            <mxPoint x="301" y="330" as="sourcePoint" />
            <mxPoint x="388" y="387" as="targetPoint" />
          </mxGeometry>
        </mxCell>
        <mxCell id="MQQ5RnTl3gj_54zcDAu4-91" value="" style="endArrow=none;html=1;rounded=0;entryX=0;entryY=0.25;entryDx=0;entryDy=0;exitX=1;exitY=0.5;exitDx=0;exitDy=0;fillColor=#ffe6cc;strokeColor=#d79b00;" edge="1" parent="1" source="n-qz_1Uwv-SLQy8fwbKy-7" target="n-qz_1Uwv-SLQy8fwbKy-1">
          <mxGeometry width="50" height="50" relative="1" as="geometry">
            <mxPoint x="320" y="8" as="sourcePoint" />
            <mxPoint x="368" y="86" as="targetPoint" />
          </mxGeometry>
        </mxCell>
        <mxCell id="MQQ5RnTl3gj_54zcDAu4-92" value="" style="endArrow=none;html=1;rounded=0;entryX=0;entryY=0.5;entryDx=0;entryDy=0;exitX=1;exitY=0;exitDx=0;exitDy=0;fillColor=#ffe6cc;strokeColor=#d79b00;" edge="1" parent="1" source="n-qz_1Uwv-SLQy8fwbKy-2" target="n-qz_1Uwv-SLQy8fwbKy-1">
          <mxGeometry width="50" height="50" relative="1" as="geometry">
            <mxPoint x="330" y="18" as="sourcePoint" />
            <mxPoint x="378" y="96" as="targetPoint" />
          </mxGeometry>
        </mxCell>
        <mxCell id="MQQ5RnTl3gj_54zcDAu4-93" value="" style="endArrow=none;html=1;rounded=0;fillColor=#ffe6cc;strokeColor=#d79b00;" edge="1" parent="1" source="n-qz_1Uwv-SLQy8fwbKy-4" target="n-qz_1Uwv-SLQy8fwbKy-1">
          <mxGeometry width="50" height="50" relative="1" as="geometry">
            <mxPoint x="270" y="74" as="sourcePoint" />
            <mxPoint x="368" y="101" as="targetPoint" />
          </mxGeometry>
        </mxCell>
        <mxCell id="MQQ5RnTl3gj_54zcDAu4-94" value="" style="endArrow=none;html=1;rounded=0;exitX=1;exitY=0;exitDx=0;exitDy=0;fillColor=#ffe6cc;strokeColor=#d79b00;" edge="1" parent="1" source="n-qz_1Uwv-SLQy8fwbKy-5" target="n-qz_1Uwv-SLQy8fwbKy-1">
          <mxGeometry width="50" height="50" relative="1" as="geometry">
            <mxPoint x="280" y="84" as="sourcePoint" />
            <mxPoint x="378" y="111" as="targetPoint" />
          </mxGeometry>
        </mxCell>
        <mxCell id="MQQ5RnTl3gj_54zcDAu4-95" value="" style="endArrow=none;html=1;rounded=0;entryX=0;entryY=0.25;entryDx=0;entryDy=0;exitX=1;exitY=0.5;exitDx=0;exitDy=0;fillColor=#ffe6cc;strokeColor=#d79b00;" edge="1" parent="1" source="n-qz_1Uwv-SLQy8fwbKy-9" target="n-qz_1Uwv-SLQy8fwbKy-8">
          <mxGeometry width="50" height="50" relative="1" as="geometry">
            <mxPoint x="290" y="94" as="sourcePoint" />
            <mxPoint x="388" y="121" as="targetPoint" />
          </mxGeometry>
        </mxCell>
        <mxCell id="MQQ5RnTl3gj_54zcDAu4-97" value="" style="endArrow=none;html=1;rounded=0;entryX=0;entryY=0.5;entryDx=0;entryDy=0;exitX=1;exitY=0.5;exitDx=0;exitDy=0;fillColor=#ffe6cc;strokeColor=#d79b00;" edge="1" parent="1" source="n-qz_1Uwv-SLQy8fwbKy-10" target="n-qz_1Uwv-SLQy8fwbKy-8">
          <mxGeometry width="50" height="50" relative="1" as="geometry">
            <mxPoint x="300" y="104" as="sourcePoint" />
            <mxPoint x="398" y="131" as="targetPoint" />
          </mxGeometry>
        </mxCell>
        <mxCell id="MQQ5RnTl3gj_54zcDAu4-98" value="" style="endArrow=none;html=1;rounded=0;entryX=0.115;entryY=0.965;entryDx=0;entryDy=0;entryPerimeter=0;fillColor=#ffe6cc;strokeColor=#d79b00;" edge="1" parent="1" source="n-qz_1Uwv-SLQy8fwbKy-12" target="n-qz_1Uwv-SLQy8fwbKy-8">
          <mxGeometry width="50" height="50" relative="1" as="geometry">
            <mxPoint x="588" y="-79" as="sourcePoint" />
            <mxPoint x="628" y="-99" as="targetPoint" />
          </mxGeometry>
        </mxCell>
        <mxCell id="MQQ5RnTl3gj_54zcDAu4-99" value="" style="endArrow=none;html=1;rounded=0;entryX=0.5;entryY=0;entryDx=0;entryDy=0;fillColor=#ffe6cc;strokeColor=#d79b00;" edge="1" parent="1" source="MQQ5RnTl3gj_54zcDAu4-10" target="MQQ5RnTl3gj_54zcDAu4-8">
          <mxGeometry width="50" height="50" relative="1" as="geometry">
            <mxPoint x="598" y="-69" as="sourcePoint" />
            <mxPoint x="638" y="-89" as="targetPoint" />
          </mxGeometry>
        </mxCell>
        <mxCell id="MQQ5RnTl3gj_54zcDAu4-100" value="" style="endArrow=none;html=1;rounded=0;entryX=0.25;entryY=0;entryDx=0;entryDy=0;exitX=1;exitY=1;exitDx=0;exitDy=0;fillColor=#ffe6cc;strokeColor=#d79b00;" edge="1" parent="1" source="MQQ5RnTl3gj_54zcDAu4-9" target="MQQ5RnTl3gj_54zcDAu4-8">
          <mxGeometry width="50" height="50" relative="1" as="geometry">
            <mxPoint x="608" y="-59" as="sourcePoint" />
            <mxPoint x="648" y="-79" as="targetPoint" />
          </mxGeometry>
        </mxCell>
        <mxCell id="MQQ5RnTl3gj_54zcDAu4-101" value="" style="endArrow=none;html=1;rounded=0;entryX=0.75;entryY=0;entryDx=0;entryDy=0;exitX=0.5;exitY=1;exitDx=0;exitDy=0;fillColor=#ffe6cc;strokeColor=#d79b00;" edge="1" parent="1" source="MQQ5RnTl3gj_54zcDAu4-13" target="MQQ5RnTl3gj_54zcDAu4-8">
          <mxGeometry width="50" height="50" relative="1" as="geometry">
            <mxPoint x="618" y="-49" as="sourcePoint" />
            <mxPoint x="658" y="-69" as="targetPoint" />
          </mxGeometry>
        </mxCell>
        <mxCell id="MQQ5RnTl3gj_54zcDAu4-102" value="" style="endArrow=none;html=1;rounded=0;entryX=0.858;entryY=0.017;entryDx=0;entryDy=0;exitX=0.5;exitY=1;exitDx=0;exitDy=0;entryPerimeter=0;" edge="1" parent="1" source="MQQ5RnTl3gj_54zcDAu4-11" target="MQQ5RnTl3gj_54zcDAu4-8">
          <mxGeometry width="50" height="50" relative="1" as="geometry">
            <mxPoint x="978" y="-129" as="sourcePoint" />
            <mxPoint x="978" y="11" as="targetPoint" />
          </mxGeometry>
        </mxCell>
        <mxCell id="MQQ5RnTl3gj_54zcDAu4-103" value="" style="endArrow=none;html=1;rounded=0;entryX=0.25;entryY=1;entryDx=0;entryDy=0;exitX=0.5;exitY=0;exitDx=0;exitDy=0;fillColor=#ffe6cc;strokeColor=#d79b00;" edge="1" parent="1" source="n-qz_1Uwv-SLQy8fwbKy-18" target="MQQ5RnTl3gj_54zcDAu4-7">
          <mxGeometry width="50" height="50" relative="1" as="geometry">
            <mxPoint x="988" y="-119" as="sourcePoint" />
            <mxPoint x="988" y="21" as="targetPoint" />
          </mxGeometry>
        </mxCell>
        <mxCell id="MQQ5RnTl3gj_54zcDAu4-104" value="" style="endArrow=none;html=1;rounded=0;entryX=0.75;entryY=1;entryDx=0;entryDy=0;exitX=0.5;exitY=0;exitDx=0;exitDy=0;fillColor=#ffe6cc;strokeColor=#d79b00;" edge="1" parent="1" source="n-qz_1Uwv-SLQy8fwbKy-14" target="MQQ5RnTl3gj_54zcDAu4-7">
          <mxGeometry width="50" height="50" relative="1" as="geometry">
            <mxPoint x="998" y="-109" as="sourcePoint" />
            <mxPoint x="998" y="31" as="targetPoint" />
          </mxGeometry>
        </mxCell>
        <mxCell id="MQQ5RnTl3gj_54zcDAu4-105" value="" style="endArrow=none;html=1;rounded=0;entryX=0.25;entryY=0;entryDx=0;entryDy=0;fillColor=#ffe6cc;strokeColor=#d79b00;" edge="1" parent="1" source="MQQ5RnTl3gj_54zcDAu4-18" target="MQQ5RnTl3gj_54zcDAu4-14">
          <mxGeometry width="50" height="50" relative="1" as="geometry">
            <mxPoint x="1008" y="-99" as="sourcePoint" />
            <mxPoint x="1008" y="41" as="targetPoint" />
          </mxGeometry>
        </mxCell>
        <mxCell id="MQQ5RnTl3gj_54zcDAu4-106" value="" style="endArrow=none;html=1;rounded=0;exitX=1;exitY=0;exitDx=0;exitDy=0;fillColor=#ffe6cc;strokeColor=#d79b00;" edge="1" parent="1" source="MQQ5RnTl3gj_54zcDAu4-17" target="MQQ5RnTl3gj_54zcDAu4-14">
          <mxGeometry width="50" height="50" relative="1" as="geometry">
            <mxPoint x="1018" y="-89" as="sourcePoint" />
            <mxPoint x="1018" y="51" as="targetPoint" />
          </mxGeometry>
        </mxCell>
        <mxCell id="MQQ5RnTl3gj_54zcDAu4-107" value="" style="endArrow=none;html=1;rounded=0;exitX=0.5;exitY=1;exitDx=0;exitDy=0;fillColor=#ffe6cc;strokeColor=#d79b00;" edge="1" parent="1" source="MQQ5RnTl3gj_54zcDAu4-16" target="MQQ5RnTl3gj_54zcDAu4-14">
          <mxGeometry width="50" height="50" relative="1" as="geometry">
            <mxPoint x="1028" y="-79" as="sourcePoint" />
            <mxPoint x="1028" y="61" as="targetPoint" />
          </mxGeometry>
        </mxCell>
        <mxCell id="MQQ5RnTl3gj_54zcDAu4-108" value="" style="endArrow=none;html=1;rounded=0;exitX=0.5;exitY=1;exitDx=0;exitDy=0;fillColor=#ffe6cc;strokeColor=#d79b00;" edge="1" parent="1" source="MQQ5RnTl3gj_54zcDAu4-15" target="MQQ5RnTl3gj_54zcDAu4-14">
          <mxGeometry width="50" height="50" relative="1" as="geometry">
            <mxPoint x="1038" y="-69" as="sourcePoint" />
            <mxPoint x="1038" y="71" as="targetPoint" />
          </mxGeometry>
        </mxCell>
        <mxCell id="MQQ5RnTl3gj_54zcDAu4-109" value="" style="endArrow=none;html=1;rounded=0;entryX=0.5;entryY=0;entryDx=0;entryDy=0;fillColor=#ffe6cc;strokeColor=#d79b00;" edge="1" parent="1" source="n-qz_1Uwv-SLQy8fwbKy-15" target="MQQ5RnTl3gj_54zcDAu4-1">
          <mxGeometry width="50" height="50" relative="1" as="geometry">
            <mxPoint x="1048" y="-59" as="sourcePoint" />
            <mxPoint x="1048" y="81" as="targetPoint" />
          </mxGeometry>
        </mxCell>
        <mxCell id="MQQ5RnTl3gj_54zcDAu4-110" value="" style="endArrow=none;html=1;rounded=0;exitX=0.5;exitY=1;exitDx=0;exitDy=0;fillColor=#ffe6cc;strokeColor=#d79b00;" edge="1" parent="1" source="MQQ5RnTl3gj_54zcDAu4-2" target="MQQ5RnTl3gj_54zcDAu4-1">
          <mxGeometry width="50" height="50" relative="1" as="geometry">
            <mxPoint x="1058" y="-49" as="sourcePoint" />
            <mxPoint x="1058" y="91" as="targetPoint" />
          </mxGeometry>
        </mxCell>
        <mxCell id="MQQ5RnTl3gj_54zcDAu4-111" value="" style="endArrow=none;html=1;rounded=0;fillColor=#ffe6cc;strokeColor=#d79b00;" edge="1" parent="1" source="MQQ5RnTl3gj_54zcDAu4-39" target="n-qz_1Uwv-SLQy8fwbKy-13">
          <mxGeometry width="50" height="50" relative="1" as="geometry">
            <mxPoint x="1068" y="-39" as="sourcePoint" />
            <mxPoint x="1068" y="101" as="targetPoint" />
          </mxGeometry>
        </mxCell>
        <mxCell id="MQQ5RnTl3gj_54zcDAu4-112" value="" style="endArrow=none;html=1;rounded=0;exitX=0.331;exitY=0.867;exitDx=0;exitDy=0;exitPerimeter=0;fillColor=#ffe6cc;strokeColor=#d79b00;" edge="1" parent="1" source="MQQ5RnTl3gj_54zcDAu4-40" target="n-qz_1Uwv-SLQy8fwbKy-13">
          <mxGeometry width="50" height="50" relative="1" as="geometry">
            <mxPoint x="1078" y="-29" as="sourcePoint" />
            <mxPoint x="1078" y="111" as="targetPoint" />
          </mxGeometry>
        </mxCell>
        <mxCell id="MQQ5RnTl3gj_54zcDAu4-113" value="" style="endArrow=none;html=1;rounded=0;fillColor=#ffe6cc;strokeColor=#d79b00;" edge="1" parent="1" source="MQQ5RnTl3gj_54zcDAu4-41" target="n-qz_1Uwv-SLQy8fwbKy-13">
          <mxGeometry width="50" height="50" relative="1" as="geometry">
            <mxPoint x="1088" y="-19" as="sourcePoint" />
            <mxPoint x="1088" y="121" as="targetPoint" />
          </mxGeometry>
        </mxCell>
      </root>
    </mxGraphModel>
  </diagram>
</mxfile>
